<svg width="412" height="223" viewBox="0 0 412 223" fill="none" xmlns="http://www.w3.org/2000/svg">
<g clip-path="url(#clip0_10_104)">
<rect y="0.5" width="412" height="222" rx="8" fill="#D1B746" fill-opacity="0.1"/>
<path d="M367.876 80.995C390.277 98.8551 389.906 133.019 367.123 150.389L214.677 266.615C185.716 288.696 144 268.043 144 231.625L144 -6.14588C144 -43.0063 186.609 -63.5284 215.43 -40.5495L367.876 80.995Z" fill="#A60002" fill-opacity="0.06"/>
<path d="M315.876 80.995C338.277 98.8551 337.906 133.019 315.123 150.389L162.677 266.615C133.716 288.696 92 268.043 92 231.625L92 -6.14588C92 -43.0063 134.609 -63.5284 163.43 -40.5495L315.876 80.995Z" fill="#A60002" fill-opacity="0.06"/>
<path d="M263.876 80.995C286.277 98.8551 285.906 133.019 263.123 150.389L110.677 266.615C81.7158 288.696 40 268.043 40 231.625L40 -6.14588C40 -43.0063 82.6086 -63.5284 111.43 -40.5495L263.876 80.995Z" fill="#A60002" fill-opacity="0.06"/>
</g>
<rect x="0.5" y="1" width="411" height="221" rx="7.5" stroke="#D1B746" stroke-opacity="0.32"/>
<defs>
<clipPath id="clip0_10_104">
<rect y="0.5" width="412" height="222" rx="8" fill="white"/>
</clipPath>
</defs>
</svg>
