<svg width="412" height="223" viewBox="0 0 412 223" fill="none" xmlns="http://www.w3.org/2000/svg">
<g clip-path="url(#clip0_10_97)">
<rect y="0.5" width="412" height="222" rx="8" fill="#D1B746" fill-opacity="0.1"/>
<path d="M367.876 117.995C390.277 135.855 389.906 170.019 367.123 187.389L214.677 303.615C185.716 325.696 144 305.043 144 268.625L144 30.8541C144 -6.00634 186.609 -26.5284 215.43 -3.54948L367.876 117.995Z" fill="#AC8829" fill-opacity="0.09"/>
<path d="M315.876 117.995C338.277 135.855 337.906 170.019 315.123 187.389L162.677 303.615C133.716 325.696 92 305.043 92 268.625L92 30.8541C92 -6.00634 134.609 -26.5284 163.43 -3.54948L315.876 117.995Z" fill="#AC8829" fill-opacity="0.09"/>
<path d="M263.876 117.995C286.277 135.855 285.906 170.019 263.123 187.389L110.677 303.615C81.7158 325.696 40 305.043 40 268.625L40 30.8541C40 -6.00634 82.6086 -26.5284 111.43 -3.54948L263.876 117.995Z" fill="#AC8829" fill-opacity="0.09"/>
</g>
<rect x="0.5" y="1" width="411" height="221" rx="7.5" stroke="#D1B746" stroke-opacity="0.32"/>
<defs>
<clipPath id="clip0_10_97">
<rect y="0.5" width="412" height="222" rx="8" fill="white"/>
</clipPath>
</defs>
</svg>
