<!DOCTYPE svg PUBLIC "-//W3C//DTD SVG 1.1//EN" "http://www.w3.org/Graphics/SVG/1.1/DTD/svg11.dtd">
<!-- Uploaded to: SVG Repo, www.svgrepo.com, Transformed by: SVG Repo Mixer Tools -->
<svg width="800px" height="800px" viewBox="0 0 100 100" xmlns="http://www.w3.org/2000/svg" fill="#000000">
<g id="SVGRepo_bgCarrier" stroke-width="0"/>
<g id="SVGRepo_tracerCarrier" stroke-linecap="round" stroke-linejoin="round"/>
<g id="SVGRepo_iconCarrier">
<title>Ecommerce copia 3</title>
<circle cx="50" cy="20.25" r="13" fill="#F3F4F6"/>
<polygon points="59 47.25 59 67.25 50 58.92 41 67.25 41 47.25 59 47.25" fill="#fb923c"/>
<path d="M79,85.25H77v-38H23v38H21v-39a1,1,0,0,1,1-1H78a1,1,0,0,1,1,1v39Z" fill="#1e3a8a"/>
<path d="M50,39.25a19,19,0,1,1,19-19A19,19,0,0,1,50,39.25Zm0-36a17,17,0,1,0,17,17A17,17,0,0,0,50,3.25Z" fill="#1e3a8a"/>
<rect x="49" y="10.25" width="2" height="10" fill="#1e3a8a"/>
<rect x="45" y="38.25" width="2" height="8" fill="#1e3a8a"/>
<path d="M83,98.75H76a1,1,0,0,1-1-1v-4H25v4a1,1,0,0,1-1,1H17a1,1,0,0,1-1-1V85.25a1,1,0,0,1,1-1H83a1,1,0,0,1,1,1v12.5A1,1,0,0,1,83,98.75Zm-6-2h5V86.25H18v10.5h5v-4a1,1,0,0,1,1-1H76a1,1,0,0,1,1,1v4Z" fill="#1e3a8a"/>
<rect x="53" y="38.25" width="2" height="8" fill="#1e3a8a"/>
<circle cx="50" cy="19.25" r="2" fill="#3B82F6"/>
<circle cx="50" cy="29.75" r="1.5" fill="#3B82F6"/>
<circle cx="59" cy="19.25" r="1.5" fill="#3B82F6"/>
<circle cx="41" cy="19.25" r="1.5" fill="#3B82F6"/>
<rect width="100" height="100" fill="none"/>
</g>
</svg>