<svg width="23" height="23" viewBox="0 0 23 23" fill="none" xmlns="http://www.w3.org/2000/svg">
<path d="M11.9126 5.88989C8.80713 5.88989 6.30225 8.39478 6.30225 11.5002C6.30225 14.6057 8.80713 17.1106 11.9126 17.1106C15.0181 17.1106 17.5229 14.6057 17.5229 11.5002C17.5229 8.39478 15.0181 5.88989 11.9126 5.88989ZM11.9126 15.1477C9.90576 15.1477 8.26514 13.512 8.26514 11.5002C8.26514 9.48853 9.90088 7.85278 11.9126 7.85278C13.9243 7.85278 15.5601 9.48853 15.5601 11.5002C15.5601 13.512 13.9194 15.1477 11.9126 15.1477ZM19.061 5.6604C19.061 6.38794 18.4751 6.96899 17.7524 6.96899C17.0249 6.96899 16.4438 6.38306 16.4438 5.6604C16.4438 4.93774 17.0298 4.35181 17.7524 4.35181C18.4751 4.35181 19.061 4.93774 19.061 5.6604ZM22.7769 6.98853C22.6938 5.2356 22.2935 3.68286 21.0093 2.40356C19.73 1.12427 18.1772 0.723877 16.4243 0.635986C14.6177 0.533447 9.20264 0.533447 7.396 0.635986C5.64795 0.718994 4.09521 1.11938 2.81104 2.39868C1.52686 3.67798 1.13135 5.23071 1.04346 6.98364C0.940918 8.79028 0.940918 14.2053 1.04346 16.012C1.12646 17.7649 1.52686 19.3176 2.81104 20.5969C4.09521 21.8762 5.64307 22.2766 7.396 22.3645C9.20264 22.467 14.6177 22.467 16.4243 22.3645C18.1772 22.2815 19.73 21.8811 21.0093 20.5969C22.2886 19.3176 22.689 17.7649 22.7769 16.012C22.8794 14.2053 22.8794 8.79517 22.7769 6.98853ZM20.4429 17.9504C20.062 18.9075 19.3247 19.6448 18.3628 20.0305C16.9224 20.6018 13.5044 20.47 11.9126 20.47C10.3208 20.47 6.89795 20.5969 5.4624 20.0305C4.50537 19.6497 3.76807 18.9124 3.38232 17.9504C2.81104 16.51 2.94287 13.092 2.94287 11.5002C2.94287 9.90845 2.81592 6.4856 3.38232 5.05005C3.76318 4.09302 4.50049 3.35571 5.4624 2.96997C6.90283 2.39868 10.3208 2.53052 11.9126 2.53052C13.5044 2.53052 16.9272 2.40356 18.3628 2.96997C19.3198 3.35083 20.0571 4.08813 20.4429 5.05005C21.0142 6.49048 20.8823 9.90845 20.8823 11.5002C20.8823 13.092 21.0142 16.5149 20.4429 17.9504Z" fill="white"/>
</svg>
