<svg width="203" height="40" viewBox="0 0 203 40" fill="none" xmlns="http://www.w3.org/2000/svg">
<g clip-path="url(#clip0_2124_31)">
<path d="M8.3 5H9.1H10.2H11.2C11.4 5 11.5 5 11.7 5H11.8H11.9C12.7 5.1 13.8 5.3 14.6 6.2C15.4 7.1 15.9 8.7 16 9V9.1L17.7 16L18.3 18.4C18.4 18.8 18.2 19.1 17.8 19.2C17.7 19.2 17.7 19.2 17.6 19.2H15.4H15.2C14.9 19.2 14.6 19 14.6 18.7L14.5 18.5L13.8 15.6H6C5.6 15.6 5.3 15.3 5.3 14.9C5.3 14.8 5.3 14.8 5.3 14.7L5.9 12.4C6 12.1 6.2 11.9 6.6 11.9H13L12.3 9.3L12.2 8.9C12.1 8.6 11.9 8.5 11.6 8.5H9.3H9.1H9H6.8C6.6 8.6 6.3 8.8 6.3 9L6.1 9.5L3.8 18.6V18.8C3.7 19.1 3.5 19.3 3.2 19.3H2.9H0.700001C0.600001 19.3 0.600001 19.3 0.500001 19.3C0.100001 19.2 -0.0999988 18.9 1.2219e-06 18.5L0.600001 16L2.3 9.1V9V8.9C2.6 8.3 3 7 3.7 6.3C4.6 5.4 5.7 5.1 6.5 5.1H6.6H6.7H7.6H8.3V5Z" fill="white"/>
<path d="M33.1 5H35.4C35.8 5 36.1 5.3 36.1 5.7V14.8C36.1 17.2 34.1 19.2 31.7 19.2H23.7C21.3 19.2 19.3 17.2 19.3 14.8V5.7C19.3 5.3 19.6 5 19.9 5H22.2C22.7 5 23 5.3 23 5.7V15C23 15.4 23.3 15.7 23.7 15.7H31.8C32.2 15.7 32.5 15.4 32.5 15V5.7C32.4 5.4 32.7 5.1 33.1 5Z" fill="white"/>
<path d="M52.9 5C53.3 5 53.6 5.3 53.6 5.7V7.8C53.6 8.2 53.3 8.5 52.9 8.5H47.3V18.6C47.3 19 47 19.3 46.6 19.3H44.3C43.9 19.3 43.6 19 43.6 18.6V8.5H38.1C37.7 8.5 37.4 8.2 37.4 7.8V5.7C37.4 5.3 37.7 5 38.1 5H52.9Z" fill="white"/>
<path d="M70.3 5C70.7 5 71 5.3 71 5.7V8C71 8.4 70.7 8.7 70.3 8.7H59C58.6 8.7 58.3 9 58.3 9.4V10.4H70.2C70.6 10.4 70.9 10.7 70.9 11.1V13.3C70.9 13.7 70.6 14 70.2 14H58.3V15C58.3 15.4 58.6 15.7 59 15.7H70.2C70.6 15.7 70.9 16 70.9 16.4V18.7C70.9 19.1 70.6 19.4 70.2 19.4H59.1C56.7 19.4 54.7 17.4 54.7 15V14.9V9.5C54.7 7.1 56.7 5.1 59.1 5.1H70.3V5Z" fill="white"/>
<path d="M72.6 5H75C75.4 5 75.7 5.3 75.7 5.7V15.1C75.7 15.4 75.9 15.6 76.2 15.6H85.8C86.2 15.6 86.5 15.9 86.5 16.3V18.5C86.5 18.9 86.2 19.2 85.8 19.2H76.4C74 19.2 72 17.2 72 14.8V5.7C72 5.4 72.3 5.1 72.6 5Z" fill="white"/>
<path d="M85.7 5.2C86.2 5.2 86.4 5.4 86.4 5.7C86.4 6 86.3 6.1 86 6.2C86.1 6.2 86.2 6.3 86.3 6.5L86.5 7H86L85.8 6.5C85.7 6.3 85.7 6.2 85.6 6.2H85.5V6.9H85.1V5.2H85.7ZM85.7 5.5H85.5V6H85.7C85.9 6 86 5.9 86 5.8C86 5.6 85.9 5.5 85.7 5.5Z" fill="white"/>
<path d="M85.7 4.6C86.1 4.6 86.5 4.7 86.8 5C87.1 5.3 87.2 5.6 87.2 6.1C87.2 6.5 87.1 6.9 86.8 7.2C86.5 7.5 86.1 7.6 85.7 7.6C85.3 7.6 84.9 7.5 84.6 7.2C84.3 6.9 84.2 6.6 84.2 6.1C84.2 5.7 84.3 5.3 84.6 5C84.9 4.8 85.3 4.6 85.7 4.6ZM85.7 4.8C85.3 4.8 85 4.9 84.8 5.2C84.6 5.4 84.4 5.7 84.4 6.1C84.4 6.5 84.5 6.8 84.8 7C85 7.2 85.3 7.4 85.7 7.4C86 7.4 86.3 7.3 86.6 7C86.9 6.8 87 6.5 87 6.1C87 5.7 86.9 5.4 86.6 5.2C86.4 5 86.1 4.8 85.7 4.8Z" fill="white"/>
<path d="M1.89999 31.4H3.79999C4.39999 31.4 4.89999 31.3 5.09999 31.1C5.39999 30.9 5.49999 30.5 5.49999 30.1C5.49999 29.8 5.39999 29.5 5.29999 29.3C5.09999 29.1 4.89999 28.9 4.69999 28.9C4.49999 28.9 4.19999 28.8 3.79999 28.8H1.89999V31.4ZM0.899994 35.2V27.9H3.69999C4.19999 27.9 4.59999 27.9 4.79999 28C5.19999 28.1 5.49999 28.2 5.69999 28.3C5.89999 28.5 6.09999 28.7 6.29999 29C6.39999 29.3 6.49999 29.6 6.49999 30C6.49999 30.6 6.29999 31.1 5.89999 31.6C5.49999 32 4.79999 32.2 3.79999 32.2H1.89999V35.2H0.899994Z" fill="white"/>
<path d="M8.10001 35.2V30H8.90001V30.8C9.10001 30.4 9.30001 30.2 9.50001 30.1C9.70001 30 9.90001 29.9 10.1 29.9C10.4 29.9 10.7 30 11 30.2L10.7 31C10.5 30.9 10.3 30.8 10 30.8C9.80001 30.8 9.60001 30.9 9.50001 31C9.30001 31.1 9.20001 31.3 9.20001 31.5C9.10001 31.8 9.10001 32.2 9.10001 32.5V35.3H8.10001V35.2Z" fill="white"/>
<path d="M12.7 32.1H15.7C15.7 31.7 15.5 31.3 15.4 31.1C15.1 30.8 14.7 30.6 14.3 30.6C13.9 30.6 13.5 30.7 13.3 31C12.9 31.3 12.8 31.6 12.7 32.1ZM15.7 33.5L16.6 33.6C16.5 34.1 16.2 34.6 15.8 34.9C15.4 35.2 14.9 35.3 14.3 35.3C13.5 35.3 12.9 35.1 12.5 34.6C12 34.1 11.8 33.5 11.8 32.6C11.8 31.7 12 31 12.5 30.5C13 30 13.6 29.8 14.3 29.8C15 29.8 15.6 30 16 30.5C16.4 31 16.7 31.7 16.7 32.5C16.7 32.6 16.7 32.6 16.7 32.7H12.7C12.7 33.3 12.9 33.7 13.2 34C13.5 34.3 13.9 34.5 14.3 34.5C14.6 34.5 14.9 34.4 15.1 34.2C15.3 34.2 15.5 33.9 15.7 33.5Z" fill="white"/>
<path d="M18.2 35.2V30H19V30.7C19.2 30.4 19.4 30.2 19.7 30.1C20 29.9 20.3 29.9 20.6 29.9C21 29.9 21.3 30 21.6 30.1C21.9 30.3 22 30.5 22.1 30.8C22.5 30.2 23.1 29.9 23.7 29.9C24.2 29.9 24.6 30 24.9 30.3C25.2 30.6 25.3 31 25.3 31.6V35.2H24.4V31.9C24.4 31.5 24.4 31.3 24.3 31.1C24.2 30.9 24.1 30.8 24 30.7C23.8 30.6 23.7 30.6 23.5 30.6C23.1 30.6 22.8 30.7 22.6 31C22.4 31.2 22.2 31.6 22.2 32.2V35.3H21.3V31.9C21.3 31.5 21.2 31.2 21.1 31C21 30.8 20.7 30.7 20.4 30.7C20.1 30.7 19.9 30.8 19.7 30.9C19.5 31 19.3 31.2 19.2 31.5C19.1 31.8 19.1 32.1 19.1 32.6V35.3H18.2V35.2Z" fill="white"/>
<path d="M27.3 35.2H28.2V30H27.3V35.2ZM27.3 29H28.2V28H27.3V29Z" fill="white"/>
<path d="M33.5 35.2V34.4C33.1 35 32.5 35.3 31.8 35.3C31.5 35.3 31.2 35.2 30.9 35.1C30.6 35 30.4 34.8 30.3 34.6C30.2 34.4 30.1 34.2 30 33.9C30 33.7 29.9 33.4 29.9 33.1V30H30.8V32.9C30.8 33.4 30.8 33.7 30.9 33.8C31 34 31.1 34.2 31.3 34.4C31.5 34.5 31.7 34.6 32 34.6C32.3 34.6 32.5 34.5 32.8 34.4C33 34.3 33.2 34.1 33.3 33.8C33.4 33.6 33.4 33.2 33.4 32.8V30H34.3V35.3H33.5V35.2Z" fill="white"/>
<path d="M36.2 35.2V30H37V30.7C37.2 30.4 37.4 30.2 37.7 30.1C38 29.9 38.3 29.9 38.6 29.9C39 29.9 39.3 30 39.6 30.1C39.9 30.3 40 30.5 40.1 30.8C40.5 30.2 41.1 29.9 41.7 29.9C42.2 29.9 42.6 30 42.9 30.3C43.2 30.6 43.3 31 43.3 31.6V35.2H42.4V31.9C42.4 31.5 42.4 31.3 42.3 31.1C42.2 30.9 42.1 30.8 42 30.7C41.8 30.6 41.7 30.6 41.5 30.6C41.1 30.6 40.8 30.7 40.6 31C40.4 31.2 40.2 31.6 40.2 32.2V35.3H39.3V31.9C39.3 31.5 39.2 31.2 39.1 31C39 30.8 38.7 30.7 38.4 30.7C38.1 30.7 37.9 30.8 37.7 30.9C37.5 31 37.3 31.2 37.2 31.5C37.1 31.8 37.1 32.1 37.1 32.6V35.3H36.2V35.2Z" fill="white"/>
<path d="M49.7 31.4H51.6C52.2 31.4 52.7 31.3 52.9 31.1C53.2 30.9 53.3 30.5 53.3 30.1C53.3 29.8 53.2 29.5 53.1 29.3C53 29.1 52.7 28.9 52.5 28.9C52.3 28.9 52 28.8 51.6 28.8H49.7V31.4ZM48.7 35.2V27.9H51.5C52 27.9 52.4 27.9 52.6 28C53 28.1 53.3 28.2 53.5 28.3C53.7 28.5 53.9 28.7 54.1 29C54.2 29.3 54.3 29.6 54.3 30C54.3 30.6 54.1 31.1 53.7 31.6C53.3 32 52.6 32.2 51.6 32.2H49.7V35.2H48.7Z" fill="white"/>
<path d="M59.3 32.6C59 32.7 58.5 32.8 57.8 32.9C57.4 33 57.2 33 57 33.1C56.8 33.2 56.7 33.3 56.6 33.4C56.5 33.5 56.5 33.7 56.5 33.8C56.5 34 56.6 34.2 56.8 34.4C57 34.6 57.2 34.6 57.6 34.6C57.9 34.6 58.3 34.5 58.5 34.4C58.8 34.2 59 34 59.1 33.8C59.2 33.6 59.2 33.3 59.2 32.9V32.6H59.3ZM59.4 34.6C59.1 34.9 58.7 35.1 58.4 35.2C58.1 35.3 57.8 35.4 57.4 35.4C56.8 35.4 56.4 35.3 56.1 35C55.8 34.7 55.6 34.4 55.6 33.9C55.6 33.6 55.7 33.4 55.8 33.2C55.9 33 56.1 32.8 56.3 32.7C56.5 32.6 56.7 32.5 56.9 32.4C57.1 32.4 57.3 32.3 57.7 32.3C58.4 32.2 59 32.1 59.3 32C59.3 31.9 59.3 31.8 59.3 31.8C59.3 31.4 59.2 31.2 59 31C58.8 30.8 58.4 30.7 58 30.7C57.6 30.7 57.3 30.8 57.1 30.9C56.9 31 56.8 31.3 56.7 31.7L55.8 31.6C55.9 31.2 56 30.9 56.2 30.7C56.4 30.5 56.6 30.3 57 30.2C57.3 30.1 57.7 30 58.2 30C58.7 30 59 30.1 59.3 30.2C59.6 30.3 59.8 30.4 59.9 30.6C60 30.8 60.1 31 60.2 31.2C60.2 31.4 60.2 31.6 60.2 32V33C60.2 33.8 60.2 34.4 60.3 34.6C60.3 34.8 60.4 35 60.5 35.2H59.6C59.5 35.1 59.4 34.8 59.4 34.6Z" fill="white"/>
<path d="M62.1 35.2V30H62.9V30.8C63.1 30.4 63.3 30.2 63.5 30.1C63.7 30 63.9 29.9 64.1 29.9C64.4 29.9 64.7 30 65 30.2L64.7 31C64.5 30.9 64.3 30.8 64 30.8C63.8 30.8 63.6 30.9 63.5 31C63.3 31.1 63.2 31.3 63.2 31.5C63.1 31.8 63.1 32.2 63.1 32.5V35.3H62.1V35.2Z" fill="white"/>
<path d="M68 34.4L68.1 35.2C67.8 35.3 67.6 35.3 67.4 35.3C67.1 35.3 66.8 35.2 66.6 35.1C66.4 35 66.3 34.9 66.2 34.7C66.1 34.5 66.1 34.2 66.1 33.6V30.6H65.4V30H66.1V28.7L67 28.2V30H68V30.7H67.1V33.8C67.1 34.1 67.1 34.2 67.1 34.3C67.1 34.4 67.2 34.4 67.3 34.5C67.4 34.5 67.5 34.6 67.6 34.6C67.7 34.5 67.8 34.5 68 34.4Z" fill="white"/>
<path d="M69.4 35.2V30H70.2V30.8C70.6 30.2 71.2 29.9 71.9 29.9C72.2 29.9 72.5 30 72.8 30.1C73.1 30.2 73.3 30.4 73.4 30.6C73.5 30.8 73.6 31 73.7 31.3C73.7 31.5 73.8 31.8 73.8 32.2V35.5H72.9V32C72.9 31.6 72.9 31.4 72.8 31.2C72.7 31 72.6 30.9 72.4 30.8C72.2 30.7 72 30.6 71.8 30.6C71.4 30.6 71.1 30.7 70.8 31C70.5 31.2 70.4 31.7 70.4 32.4V35.3H69.4V35.2Z" fill="white"/>
<path d="M76.3 32.1H79.3C79.3 31.7 79.1 31.3 79 31.1C78.7 30.8 78.3 30.6 77.9 30.6C77.5 30.6 77.1 30.7 76.9 31C76.4 31.3 76.3 31.6 76.3 32.1ZM79.2 33.5L80.1 33.6C80 34.1 79.7 34.6 79.3 34.9C78.9 35.2 78.4 35.3 77.8 35.3C77 35.3 76.4 35.1 76 34.6C75.5 34.1 75.3 33.5 75.3 32.6C75.3 31.7 75.5 31 76 30.5C76.5 30 77.1 29.8 77.8 29.8C78.5 29.8 79.1 30 79.5 30.5C79.9 31 80.2 31.7 80.2 32.5C80.2 32.6 80.2 32.6 80.2 32.7H76.2C76.2 33.3 76.4 33.7 76.7 34C77 34.3 77.4 34.5 77.8 34.5C78.1 34.5 78.4 34.4 78.6 34.2C78.9 34.2 79.1 33.9 79.2 33.5Z" fill="white"/>
<path d="M81.8 35.2V30H82.6V30.8C82.8 30.4 83 30.2 83.2 30.1C83.4 30 83.6 29.9 83.8 29.9C84.1 29.9 84.4 30 84.7 30.2L84.3 31C84.1 30.9 83.9 30.8 83.6 30.8C83.4 30.8 83.2 30.9 83.1 31C82.9 31.1 82.8 31.3 82.8 31.5C82.7 31.8 82.6 32.2 82.6 32.5V35.3H81.8V35.2Z" fill="white"/>
<path d="M101.6 4.6H100.5V35.3H101.6V4.6Z" fill="white"/>
<path d="M142.2 21.4L143.1 17.1H144L143.1 21.4H142.2ZM134.5 18.3L134.3 19.2H140.9L141.1 18.3C141.1 18.1 141.1 18 140.8 18H134.9C134.7 17.9 134.5 18.1 134.5 18.3ZM140.4 21.4L140.7 20H134.1L133.8 21.4H133L133.7 18.1C133.9 17.4 134.3 17 135 17H141.2C141.9 17 142.2 17.4 142 18.1L141.3 21.3H140.4V21.4ZM173.8 18.3L173.4 20.2C173.4 20.4 173.4 20.6 173.7 20.6H179.6C179.8 20.6 180 20.5 180 20.3L180.4 18.4C180.5 18.2 180.4 18 180.1 18H174.2C174 18 173.8 18.1 173.8 18.3ZM172.5 20.4L173 18.2C173.1 17.5 173.6 17.2 174.2 17.2H180.4C181.1 17.2 181.4 17.6 181.2 18.3L180.7 20.5C180.6 21.2 180.1 21.5 179.5 21.5H173.2C172.6 21.4 172.3 21.1 172.5 20.4ZM143.8 21.4L144.7 17.1H145.6L151.5 20.4L152.2 17.1H153.1L152.2 21.4H151.3L145.4 18.1L144.7 21.4H143.8ZM201.2 21.4L201.9 18.1L196.6 20L191.9 18.1L191.2 21.4H190.3L191.2 17.1H192.1L196.8 19L202.2 17.1H203.1L202.2 21.4H201.2ZM116.4 18.8H122.6C122.8 18.8 123 18.7 123 18.4V18.2C123.1 18 123 17.9 122.7 17.9H116.5L116.4 18.8ZM116 20.6H122.2C122.4 20.6 122.6 20.5 122.6 20.3V20.1C122.7 19.9 122.6 19.7 122.3 19.7H116V20.6ZM115.8 17.1H123.1C123.8 17.1 124.1 17.4 123.9 18.1L123.8 18.6C123.7 18.9 123.5 19.2 123.1 19.2C123.4 19.3 123.6 19.4 123.5 19.8L123.4 20.3C123.3 21 122.8 21.3 122.1 21.3H114.8L115.8 17.1ZM125.3 19.2H131.5C131.7 19.2 131.9 19 131.9 18.8L132 18.3C132.1 18.1 131.9 18 131.7 18H125.5L125.3 19.2ZM131.2 21.4L130.4 20H125L124.7 21.4H124L124.9 17.1H132.2C132.9 17.1 133.2 17.4 133 18.1L132.8 19C132.7 19.7 132.2 20 131.5 20L132.3 21.4H131.2ZM152.8 21.4L153 20.5H160.1C160.3 20.5 160.5 20.4 160.5 20.2V20C160.6 19.8 160.5 19.7 160.2 19.7H154.1C153.4 19.7 153.1 19.4 153.3 18.7L153.4 18.1C153.5 17.4 154 17 154.7 17H162L161.8 17.9H154.7C154.5 17.9 154.3 18 154.3 18.2V18.4C154.3 18.6 154.3 18.8 154.6 18.8H160.7C161.4 18.8 161.7 19.1 161.5 19.8L161.4 20.3C161.3 21 160.8 21.4 160.1 21.4H152.8ZM166.2 21.4L166.9 17.9H162.6L162.8 17H172.5L172.3 17.9H168L167.3 21.4H166.2ZM182.6 19.2H188.8C189 19.2 189.2 19 189.2 18.8L189.3 18.3C189.4 18.1 189.2 18 189 18H182.8L182.6 19.2ZM188.5 21.4L187.7 20H182.3L182 21.4H181.1L182 17.1H189.3C190 17.1 190.3 17.4 190.1 18.1L189.9 19C189.8 19.7 189.3 20 188.6 20L189.4 21.4H188.5Z" fill="white"/>
</g>
<defs>
<clipPath id="clip0_2124_31">
<rect width="203" height="40" fill="white"/>
</clipPath>
</defs>
</svg>
