<!DOCTYPE svg PUBLIC "-//W3C//DTD SVG 1.1//EN" "http://www.w3.org/Graphics/SVG/1.1/DTD/svg11.dtd">
<!-- Uploaded to: SVG Repo, www.svgrepo.com, Transformed by: SVG Repo Mixer Tools -->
<svg width="800px" height="800px" viewBox="-4 0 34 34" version="1.1" xmlns="http://www.w3.org/2000/svg" xmlns:xlink="http://www.w3.org/1999/xlink" fill="#000000">
<g id="SVGRepo_bgCarrier" stroke-width="0"/>
<g id="SVGRepo_tracerCarrier" stroke-linecap="round" stroke-linejoin="round"/>
<g id="SVGRepo_iconCarrier"> <!-- Uploaded to: SVG Repo, www.svgrepo.com, Transformed by: SVG Repo Mixer Tools --> <title>doc</title> <desc>Created with Sketch.</desc> <defs> </defs> <g id="Vivid.JS" stroke="none" stroke-width="1" fill="none" fill-rule="evenodd"> <g id="Vivid-Icons" transform="translate(-750.000000, -644.000000)"> <g id="Icons" transform="translate(37.000000, 169.000000)"> <g id="doc" transform="translate(702.000000, 468.000000)"> <g transform="translate(11.000000, 7.000000)"> <rect id="Rectangle-path" fill="#fb923c" fill-rule="nonzero" x="0" y="0" width="26" height="34"> </rect> <path d="M5,0 L5,11 L8,8 L11,11 L11,0 L5,0 Z M17,12 L26,12 L26,14 L17,14 L17,12 Z M17,18 L26,18 L26,20 L17,20 L17,18 Z M17,23 L26,23 L26,25 L17,25 L17,23 Z" id="Shape" fill="#1e3a8a"> </path> <path d="M13.995,12.005 L13.995,13.987 L17.005,13.987 L17.005,12.005 L13.995,12.005 Z M13.995,18.015 L13.995,20 L17.005,20 L17.005,18.016 L13.995,18.016 L13.995,18.015 Z M13.995,22.993 L13.995,25.007 L17.005,25.007 L17.005,22.993 L13.995,22.993 Z" id="Shape" fill="#FFFFFF"> </path> </g> </g> </g> </g> </g> </g>
</svg>