<!DOCTYPE svg PUBLIC "-//W3C//DTD SVG 1.1//EN" "http://www.w3.org/Graphics/SVG/1.1/DTD/svg11.dtd">
<!-- Uploaded to: SVG Repo, www.svgrepo.com, Transformed by: SVG Repo Mixer Tools -->
<svg width="800px" height="800px" viewBox="0 0 100 100" xmlns="http://www.w3.org/2000/svg" fill="#000000">
<g id="SVGRepo_bgCarrier" stroke-width="0"/>
<g id="SVGRepo_tracerCarrier" stroke-linecap="round" stroke-linejoin="round"/>
<g id="SVGRepo_iconCarrier">
<title>Ecommerce copia 3</title>
<path d="M73.41,87.7a1,1,0,0,0,1.12,0l6.76-4.56a21,21,0,0,0,9.43-17.33V51.24a0.92,0.92,0,0,0-.61-0.86l-15.78-6a1,1,0,0,0-.72,0l-15.78,6a0.92,0.92,0,0,0-.61.86V65.81a21,21,0,0,0,9.43,17.33Z" fill="#F3F4F6"/>
<polygon points="62.97 4.42 62.97 4.59 52.09 20.42 51.97 20.42 30.09 20.42 40.97 4.59 40.97 4.42 62.97 4.42" fill="#3B82F6"/>
<polygon points="51.97 20.59 51.97 42.42 40.97 34.42 29.97 42.42 29.97 20.59 30.09 20.42 51.97 20.42 51.97 20.59" fill="#3B82F6"/>
<polygon points="30.09 20.42 29.97 20.59 29.97 20.42 30.09 20.42" fill="#3B82F6"/>
<path d="M79,40.09a1,1,0,0,1-1-1V20.42a1,1,0,1,1,2,0V39.09A1,1,0,0,1,79,40.09Z" fill="#1F2937"/>
<path d="M59,85.42H5a3,3,0,0,1-3-3v-62H4v62a1,1,0,0,0,1,1H59v2Z" fill="#1F2937"/>
<path d="M90,43.42H88V7.91L79.82,21a1,1,0,0,1-.85.47H3a1,1,0,0,1-.82-1.57l11-16A1,1,0,0,1,14,3.42H89a1,1,0,0,1,1,1v39Zm-85.1-24H78.42l8.75-14H14.5Z" fill="#1F2937"/>
<path d="M74,96.58a2,2,0,0,1-1.13-.34l-9.51-6.48a31.33,31.33,0,0,1-5.4-4.65,29.83,29.83,0,0,1-8-20.26V46.92a1.91,1.91,0,0,1,1.25-1.79l22.09-8.42a2,2,0,0,1,1.44,0l22.08,8.42A1.91,1.91,0,0,1,98,46.92V64.84A30.27,30.27,0,0,1,84.61,89.75L75.1,96.23A2,2,0,0,1,74,96.58Zm0-58L51.88,47l0,17.85a27.83,27.83,0,0,0,7.48,18.9h0a29.31,29.31,0,0,0,5.06,4.35L74,94.58l9.52-6.48A28.27,28.27,0,0,0,96,64.84V46.92l-7.42-2.77Z" fill="#1F2937"/>
<polygon points="73.3 73.67 65.76 66.29 67.16 64.86 73.16 70.73 82.19 59.97 83.73 61.26 73.3 73.67" fill="#1F2937"/>
<rect width="100" height="100" fill="none"/>
</g>
</svg>