<svg width="19" height="25" viewBox="0 0 19 25" fill="none" xmlns="http://www.w3.org/2000/svg">
<path d="M2.2456 11.7341L7.10986 14.1076C8.04736 14.5666 7.90088 15.9392 6.89014 16.1931L1.64013 17.5022C1.48602 17.5409 1.32539 17.5462 1.16906 17.5177C1.01273 17.4892 0.86432 17.4275 0.733815 17.3368C0.603311 17.2461 0.493741 17.1286 0.412476 16.992C0.331212 16.8555 0.280139 16.7031 0.262693 16.5451C0.101602 15.141 0.251638 13.7187 0.702146 12.3791C0.752686 12.2291 0.834645 12.0915 0.942552 11.9757C1.05046 11.8599 1.18183 11.7684 1.32791 11.7073C1.47398 11.6463 1.63139 11.6171 1.78964 11.6217C1.94789 11.6263 2.10334 11.6646 2.2456 11.7341ZM4.39404 23.4162C5.55787 24.2135 6.88103 24.7485 8.27197 24.9841C8.4285 25.0109 8.58897 25.004 8.74258 24.9636C8.89618 24.9233 9.03938 24.8506 9.16252 24.7503C9.28566 24.65 9.3859 24.5245 9.4565 24.3822C9.52709 24.2399 9.5664 24.0842 9.57178 23.9255L9.76221 18.5144C9.79639 17.4743 8.51709 16.9563 7.81836 17.7282L4.19482 21.7517C4.08871 21.8697 4.00906 22.0091 3.96118 22.1604C3.91331 22.3118 3.89833 22.4716 3.91723 22.6292C3.93614 22.7868 3.98851 22.9386 4.07083 23.0743C4.15314 23.21 4.26351 23.3266 4.39453 23.4162H4.39404ZM11.4907 18.049L14.3623 22.6389C14.4469 22.7736 14.5593 22.8888 14.692 22.9767C14.8247 23.0646 14.9745 23.1232 15.1316 23.1486C15.2887 23.174 15.4495 23.1657 15.6031 23.1241C15.7567 23.0825 15.8996 23.0086 16.0225 22.9074C17.1108 22.0078 17.9892 20.881 18.5962 19.6062C18.6631 19.4626 18.6989 19.3066 18.7012 19.1482C18.7035 18.9899 18.6723 18.8328 18.6096 18.6874C18.547 18.542 18.4542 18.4114 18.3376 18.3043C18.2209 18.1973 18.0829 18.1161 17.9326 18.0661L12.7852 16.3933C11.7935 16.0759 10.939 17.1647 11.4907 18.049ZM18.7334 11.5925C18.1706 10.2978 17.3303 9.14247 16.272 8.20821C16.1529 8.10384 16.013 8.02601 15.8615 7.9799C15.71 7.93379 15.5504 7.92045 15.3934 7.94078C15.2363 7.9611 15.0854 8.01462 14.9507 8.09777C14.8159 8.18092 14.7004 8.2918 14.6118 8.42305L11.5845 12.9113C11.0034 13.7756 11.814 14.8942 12.8149 14.6062L18.022 13.1164C18.1746 13.0715 18.3159 12.9947 18.4366 12.891C18.5573 12.7874 18.6546 12.6593 18.722 12.5152C18.7895 12.3711 18.8255 12.2143 18.8278 12.0553C18.8301 11.8962 18.7986 11.7385 18.7353 11.5925H18.7334ZM3.18359 1.47334C3.04528 1.53991 2.92218 1.63429 2.822 1.75058C2.72181 1.86688 2.64668 2.00259 2.60132 2.14923C2.55595 2.29587 2.54132 2.45029 2.55833 2.60284C2.57534 2.75539 2.62364 2.9028 2.70019 3.03584L7.78418 11.8464C8.35547 12.8327 9.86475 12.4274 9.86475 11.2897V1.1169C9.86613 0.963165 9.83547 0.810831 9.77473 0.6696C9.71399 0.528369 9.6245 0.40134 9.51196 0.296605C9.39941 0.19187 9.26629 0.111728 9.12106 0.0612835C8.97583 0.0108392 8.82169 -0.00880033 8.66846 0.00361617C6.76582 0.154814 4.90691 0.652927 3.18359 1.47334Z" fill="white"/>
</svg>
