<svg width="25" height="17" viewBox="0 0 25 17" fill="none" xmlns="http://www.w3.org/2000/svg">
<path d="M23.5658 2.77427C23.2932 1.7478 22.49 0.939377 21.4702 0.665028C19.6217 0.166504 12.2093 0.166504 12.2093 0.166504C12.2093 0.166504 4.79696 0.166504 2.94839 0.665028C1.92856 0.939421 1.12535 1.7478 0.852734 2.77427C0.357422 4.63482 0.357422 8.51668 0.357422 8.51668C0.357422 8.51668 0.357422 12.3985 0.852734 14.2591C1.12535 15.2856 1.92856 16.0603 2.94839 16.3346C4.79696 16.8332 12.2093 16.8332 12.2093 16.8332C12.2093 16.8332 19.6216 16.8332 21.4702 16.3346C22.49 16.0603 23.2932 15.2856 23.5658 14.2591C24.0612 12.3985 24.0612 8.51668 24.0612 8.51668C24.0612 8.51668 24.0612 4.63482 23.5658 2.77427ZM9.78503 12.0411V4.99224L15.9803 8.51676L9.78503 12.0411Z" fill="white"/>
</svg>
