<svg width="150" height="150" viewBox="0 0 150 150" fill="none" xmlns="http://www.w3.org/2000/svg">
<circle cx="75" cy="75" r="74.5" fill="white" stroke="#0066FF"/>
<path d="M85.2698 72.5089C87.2213 72.6036 89.0577 73.4601 90.384 74.8946C91.7154 76.3346 92.4259 78.2407 92.3606 80.2003L92.3596 80.2178L92.3606 80.2364C92.4351 82.2017 91.729 84.1171 90.3967 85.5645C89.0694 87.0064 87.2273 87.8663 85.2698 87.961C83.3159 87.8662 81.4778 87.005 80.1565 85.5626C78.8301 84.1145 78.1322 82.1997 78.2161 80.2383L78.217 80.2178L78.2161 80.1983C78.1415 78.2426 78.8436 76.3362 80.1692 74.8956C81.4895 73.4606 83.3221 72.6037 85.2698 72.5089ZM82.7463 61.629V61.6299L82.7571 61.6358C82.9625 61.748 83.1434 61.9003 83.2883 62.084C83.4333 62.2679 83.5397 62.4793 83.6008 62.7051C83.662 62.9309 83.6762 63.1668 83.6438 63.3985C83.6114 63.6302 83.5322 63.8533 83.4114 64.0538L83.4075 64.0616L70.3196 86.7061C70.1603 86.9761 69.9334 87.2005 69.6614 87.3565C69.3894 87.5125 69.0814 87.5954 68.7678 87.5967H68.7483C68.4479 87.6095 68.1505 87.5326 67.8938 87.376L67.8801 87.3682C67.6767 87.2526 67.498 87.098 67.3547 86.9131C67.2115 86.7283 67.1063 86.5168 67.0452 86.2911C66.984 86.0652 66.9678 85.8287 66.9983 85.5967C67.0212 85.423 67.0696 85.2538 67.1418 85.0948L67.2229 84.9385L80.3127 62.2901L80.3147 62.2872C80.4304 62.0837 80.5856 61.9051 80.7708 61.7618C80.9557 61.6186 81.167 61.5133 81.3928 61.4522C81.6188 61.3911 81.855 61.3749 82.0872 61.4053C82.3194 61.4358 82.5438 61.5116 82.7463 61.629ZM85.2122 76.0557C84.2064 76.1724 83.2861 76.6784 82.6487 77.4649C82.0217 78.2387 81.7185 79.2236 81.7991 80.2149C81.7172 81.2078 82.0206 82.1948 82.6487 82.9698C83.2861 83.7563 84.2064 84.2623 85.2122 84.379L85.2698 84.3848L85.3274 84.379C86.3351 84.2625 87.2583 83.7587 87.9016 82.9747C88.5363 82.2011 88.8491 81.2138 88.7776 80.2169C88.8583 79.2181 88.5497 78.226 87.9133 77.4503C87.2671 76.6626 86.336 76.1612 85.3225 76.0547L85.2678 76.0489L85.2122 76.0557ZM65.3958 61.0372C67.3439 61.1317 69.1767 61.9897 70.4973 63.4249C71.8229 64.8655 72.525 66.7719 72.4504 68.7276L72.4495 68.7471L72.4504 68.7676C72.5343 70.7291 71.8365 72.6437 70.51 74.0919C69.1884 75.5346 67.3502 76.3958 65.3958 76.4903C63.4386 76.3952 61.5968 75.5354 60.2698 74.0938C58.9375 72.6464 58.2315 70.7309 58.3059 68.7657L58.3069 68.7471V68.7296C58.2416 66.7701 58.9512 64.8639 60.2825 63.4239C61.6085 61.9897 63.4447 61.1323 65.3958 61.0372ZM65.345 64.584C64.3315 64.6904 63.4004 65.1919 62.7542 65.9796C62.1165 66.7568 61.8066 67.7512 61.8889 68.752C61.8191 69.7469 62.1315 70.7319 62.7649 71.504C63.4082 72.288 64.3315 72.7907 65.3391 72.9073L65.3967 72.9141L65.4543 72.9073C66.4601 72.7907 67.3804 72.2855 68.0178 71.4991C68.6455 70.7246 68.9487 69.7384 68.8674 68.7462C68.9581 67.752 68.659 66.7611 68.0295 65.9844C67.3891 65.1941 66.4604 64.6902 65.4485 64.584L65.3967 64.5792L65.345 64.584Z" fill="#0066FF" stroke="#0066FF"/>
<path d="M75.3486 47.5137C82.7513 47.2807 89.9445 49.9938 95.3477 55.0566C100.747 60.1157 103.917 67.108 104.166 74.5C103.917 81.892 100.747 88.8843 95.3477 93.9434C89.9445 99.0062 82.7513 101.719 75.3486 101.486L75.333 101.485L75.3174 101.486C67.9148 101.719 60.7224 99.0061 55.3193 93.9434C49.9203 88.8843 46.7486 81.8921 46.5 74.5C46.7486 67.1079 49.9203 60.1157 55.3193 55.0566C60.7224 49.9939 67.9148 47.2808 75.3174 47.5137L75.333 47.5146L75.3486 47.5137ZM75.333 51.0947C68.8904 50.8669 62.6184 53.1961 57.8877 57.5742C53.1526 61.9564 50.3471 68.0348 50.084 74.4795L50.083 74.5L50.084 74.5205C50.347 80.9652 53.1526 87.0436 57.8877 91.4258C62.6184 95.8039 68.8904 98.1321 75.333 97.9043C81.7758 98.1323 88.0474 95.804 92.7783 91.4258C97.5135 87.0436 100.32 80.9653 100.583 74.5205L100.584 74.5L100.583 74.4795C100.32 68.0347 97.5135 61.9564 92.7783 57.5742C88.0474 53.1961 81.7758 50.8667 75.333 51.0947Z" fill="#0066FF" stroke="#0066FF"/>
</svg>
