<svg width="150" height="150" viewBox="0 0 150 150" fill="none" xmlns="http://www.w3.org/2000/svg">
<circle cx="75" cy="75" r="74.5" fill="white" stroke="#0066FF"/>
<path d="M75.0205 79.8496C72.132 79.8496 70.8083 80.0525 67.7549 80.4385C66.2079 80.634 64.839 80.9076 63.7236 81.2539C62.6208 81.5964 61.7143 82.0258 61.1396 82.5625L61.1387 82.5645C60.6861 82.9915 60.4604 83.4878 60.4932 84.0127C60.5249 84.5176 60.79 84.956 61.123 85.3008C61.7827 85.9835 62.8614 86.4644 63.8115 86.5674C65.4938 86.7541 68.8339 86.6865 75.0332 86.6865C80.6141 86.6865 83.8789 86.7405 85.7021 86.6152V86.6406L86.2617 86.5742C87.2032 86.4625 88.2451 86.0067 88.8857 85.3311C89.2106 84.9884 89.4618 84.5573 89.498 84.0586C89.5305 83.6111 89.3859 83.1717 89.0752 82.7656L88.9316 82.5938C88.6868 82.3192 88.3351 82.0868 87.9307 81.8848C87.5188 81.6791 87.021 81.4895 86.458 81.3164C85.3318 80.9702 83.9051 80.6757 82.2969 80.4414C79.0937 79.9749 77.905 79.8496 75.0205 79.8496ZM55.2002 72.8955C52.569 72.1398 51.547 71.7926 49.793 72.0557H49.792C49.4198 72.1123 49.1094 72.2343 48.8848 72.4717C48.6655 72.7035 48.5918 72.9809 48.5488 73.1836C48.438 73.7013 48.4244 74.2101 48.6113 75.043C48.7831 75.8193 49.3342 76.3043 49.9707 76.582C50.5965 76.8551 51.3453 76.9491 52.0439 76.9492L52.0449 76.9502V76.9492C54.2304 76.9532 56.4141 76.8278 58.584 76.5732L58.583 76.5723C59.069 76.5257 59.3648 76.1533 59.4658 75.8096C59.5667 75.4658 59.5211 74.9776 59.1162 74.6846C58.3354 74.1106 57.0079 73.4141 55.1992 72.8955H55.2002ZM100.262 72.0234C98.8737 71.833 97.2705 72.1826 94.792 72.8945C92.9896 73.412 91.6414 74.0958 90.8643 74.6914V74.6924C90.4846 74.9837 90.402 75.4355 90.4766 75.7852C90.5457 76.1086 90.8001 76.5209 91.2842 76.5713V76.5723C93.4955 76.8233 95.7201 76.9487 97.9463 76.9482C98.6421 76.9482 99.3924 76.8553 100.02 76.583C100.658 76.3059 101.212 75.8196 101.381 75.0381L101.38 75.0371C101.521 74.3988 101.545 73.741 101.448 73.0947H101.446C101.423 72.9042 101.345 72.6949 101.217 72.5166C101.079 72.3247 100.855 72.1308 100.537 72.0693V72.0684L100.262 72.0234ZM74.9961 58.3955C72.6068 58.3955 69.8741 58.5576 67.3643 58.9004C64.8677 59.2414 62.5424 59.7675 60.9971 60.5176C59.8715 61.0638 59.0163 61.9731 58.3242 62.9805C57.6337 63.9856 57.0814 65.1239 56.584 66.1543L56.5791 66.166C56.5416 66.249 56.5019 66.3263 56.4531 66.4268C56.3421 66.6555 56.2929 66.9093 56.3105 67.1631C56.3282 67.4168 56.4125 67.6607 56.5537 67.8721C56.6949 68.0833 56.8882 68.2543 57.1143 68.3701C57.3402 68.4858 57.592 68.5435 57.8457 68.5371H57.8467C62.0244 68.427 70.7535 68.0674 74.9961 68.0674C79.2385 68.0674 87.9683 68.4182 92.1387 68.5283H92.1396C92.3933 68.5347 92.6452 68.4779 92.8711 68.3623C93.0971 68.2466 93.2904 68.0754 93.4316 67.8643C93.5729 67.6528 93.6572 67.4081 93.6748 67.1543C93.688 66.9638 93.6635 66.7736 93.6035 66.5938L93.5322 66.418L93.4092 66.1582L93.4072 66.1543L93.0215 65.3652C92.6232 64.5637 92.1834 63.7343 91.666 62.9805C91.018 62.0362 90.2269 61.1778 89.2031 60.624L88.9951 60.5176C87.4493 59.7648 85.1236 59.2388 82.627 58.8984C80.1172 58.5563 77.3851 58.3955 74.9961 58.3955ZM48.4902 91.583L48.0518 91.5293C47.7677 91.4945 47.501 91.3816 47.2822 91.2061C47.0636 91.0305 46.9019 90.7997 46.8145 90.541C46.791 90.4717 46.0287 88.1871 45.6221 84.3916C45.4306 82.5888 45.4665 79.7562 45.7148 77.0029C46.1628 72.1145 46.8885 71.2708 47.084 71.0156C47.6424 70.2907 48.5651 69.7947 49.6807 69.2061L49.6816 69.207C49.811 69.1403 49.9239 69.0439 50.0107 68.9258C50.0976 68.8076 50.1558 68.6699 50.1797 68.5244C50.1976 68.4153 50.1959 68.3042 50.1748 68.1963L50.1475 68.0898L50.1074 67.9873C50.0618 67.8876 49.9989 67.7968 49.9219 67.7188L49.916 67.7129L49.8096 67.5967C49.71 67.4755 49.631 67.3396 49.5762 67.1943C49.5041 67.0033 49.4753 66.8 49.4902 66.5977C49.525 66.231 49.6997 65.8874 49.9844 65.6367C50.2338 65.4171 50.551 65.2826 50.8867 65.2549L51.0312 65.25H52.9873L53.1797 65.2617L53.2979 65.2764L53.4092 65.2363C53.4308 65.2286 53.4535 65.2229 53.4766 65.2197L53.7354 65.1846L53.8535 64.9521L53.8643 64.9336L53.8691 64.9229C55.0351 62.5205 56.552 59.4287 59.6514 57.9248C61.9965 56.7882 65.3762 56.1762 68.4316 55.8525C71.4723 55.5305 74.1302 55.5 74.9961 55.5C75.8622 55.5 78.5194 55.53 81.5605 55.8525C84.6166 56.1766 87.9973 56.7904 90.3457 57.9287C93.4453 59.4326 94.9629 62.5243 96.1289 64.9268L96.2334 65.1416L96.4658 65.1953C96.4984 65.2029 96.53 65.2137 96.5605 65.2266L96.6836 65.2783L96.8154 65.2617L97.0078 65.25H98.96C99.3485 65.2465 99.7228 65.3857 100.008 65.6367C100.257 65.856 100.422 66.1463 100.482 66.4609L100.502 66.5977C100.519 66.8017 100.491 67.0071 100.419 67.2002C100.347 67.3947 100.233 67.5729 100.082 67.7217L100.078 67.7256C100.001 67.8036 99.9373 67.8945 99.8916 67.9941L99.8525 68.0967C99.8074 68.237 99.7954 68.3866 99.8193 68.5322C99.8433 68.6778 99.9014 68.8153 99.9883 68.9336C100.074 69.0505 100.187 69.1443 100.314 69.2109V69.2119C101.43 69.7967 102.352 70.2947 102.916 71.0254V71.0264C103.097 71.2594 103.749 72.0163 104.198 76.1396L104.285 77.0098C104.505 79.4229 104.557 81.8899 104.438 83.6777L104.377 84.4004C103.972 88.1843 103.213 90.4663 103.186 90.5488C103.098 90.8081 102.935 91.0402 102.716 91.2158C102.496 91.3914 102.229 91.5039 101.944 91.5381L101.504 91.5908V92.0488C101.504 92.4292 101.348 92.7964 101.068 93.0693C100.788 93.3427 100.405 93.499 100.003 93.499H93.002C92.6001 93.4989 92.2169 93.3427 91.9365 93.0693C91.6567 92.7964 91.502 92.4291 91.502 92.0488V91.5576L91.0107 91.5488C90.0725 91.5316 89.3976 91.3685 88.6426 91.1797H88.6416C87.4649 90.8708 86.262 90.6649 85.0479 90.5654H85.0469C81.2109 90.2096 77.2382 90.0879 74.9961 90.0879C72.9921 90.0879 69.8252 90.1812 66.498 90.4434L65.0713 90.5654C64.0108 90.6525 62.9589 90.821 61.9258 91.0684L61.4844 91.1787C60.6971 91.3769 60.0003 91.5498 58.9922 91.5498H58.4922V92.0498C58.4922 92.4302 58.3376 92.7983 58.0576 93.0713C57.7772 93.3446 57.394 93.4999 56.9922 93.5H49.9912C49.5894 93.5 49.2062 93.3445 48.9258 93.0713C48.6458 92.7983 48.4902 92.4302 48.4902 92.0498V91.583Z" fill="#0066FF" stroke="#0066FF"/>
</svg>
