<svg width="150" height="150" viewBox="0 0 150 150" fill="none" xmlns="http://www.w3.org/2000/svg">
<circle cx="75" cy="75" r="74.5" stroke="#0066FF"/>
<path d="M67.1875 96.625H81.8125C82.3264 96.625 82.8193 96.829 83.1826 97.1924C83.546 97.5557 83.75 98.0486 83.75 98.5625C83.75 99.0764 83.546 99.5693 83.1826 99.9326C82.8193 100.296 82.3264 100.5 81.8125 100.5H67.1875C66.6736 100.5 66.1807 100.296 65.8174 99.9326C65.454 99.5693 65.25 99.0764 65.25 98.5625C65.25 98.0486 65.454 97.5557 65.8174 97.1924C66.1807 96.829 66.6736 96.625 67.1875 96.625ZM92.793 68H83.75V90.75H65.25V68H56.207L74.5 49.707L92.793 68ZM65.5615 64.125H69.125V86.875H79.875V64.125H83.4385L74.5 55.1865L65.5615 64.125Z" fill="#0066FF" stroke="white"/>
</svg>
