<svg width="150" height="150" viewBox="0 0 150 150" fill="none" xmlns="http://www.w3.org/2000/svg">
<circle cx="75" cy="75" r="74.5" fill="white" stroke="#0066FF"/>
<g filter="url(#filter0_d_2_2146)">
<path d="M54.75 54C52.1641 54 49.6842 55.0272 47.8557 56.8557C46.0272 58.6842 45 61.1641 45 63.75V67.5H105V63.75C105 62.4696 104.748 61.2018 104.258 60.0188C103.768 58.8359 103.05 57.7611 102.144 56.8557C101.239 55.9503 100.164 55.2322 98.9812 54.7422C97.7982 54.2522 96.5304 54 95.25 54H54.75ZM105 72H45V86.25C45 88.8359 46.0272 91.3158 47.8557 93.1443C49.6842 94.9728 52.1641 96 54.75 96H95.25C96.5304 96 97.7982 95.7478 98.9812 95.2578C100.164 94.7678 101.239 94.0497 102.144 93.1443C103.05 92.2389 103.768 91.1641 104.258 89.9812C104.748 88.7982 105 87.5304 105 86.25V72ZM86.25 82.5H93.75C94.3467 82.5 94.919 82.7371 95.341 83.159C95.7629 83.581 96 84.1533 96 84.75C96 85.3467 95.7629 85.919 95.341 86.341C94.919 86.7629 94.3467 87 93.75 87H86.25C85.6533 87 85.081 86.7629 84.659 86.341C84.2371 85.919 84 85.3467 84 84.75C84 84.1533 84.2371 83.581 84.659 83.159C85.081 82.7371 85.6533 82.5 86.25 82.5Z" fill="#0066FF"/>
<path d="M104.5 72.5V86.25C104.5 87.4647 104.261 88.6678 103.796 89.79C103.331 90.9122 102.65 91.9321 101.791 92.791C100.932 93.6499 99.9122 94.331 98.79 94.7959C97.6678 95.2608 96.4647 95.5 95.25 95.5H54.75C52.2967 95.5 49.9437 94.5257 48.209 92.791C46.4743 91.0563 45.5 88.7033 45.5 86.25V72.5H104.5ZM86.25 82C85.5207 82 84.8214 82.2899 84.3057 82.8057C83.7899 83.3214 83.5 84.0207 83.5 84.75C83.5 85.4793 83.7899 86.1786 84.3057 86.6943C84.8214 87.2101 85.5207 87.5 86.25 87.5H93.75C94.4793 87.5 95.1786 87.2101 95.6943 86.6943C96.2101 86.1786 96.5 85.4793 96.5 84.75C96.5 84.0207 96.2101 83.3214 95.6943 82.8057C95.1786 82.2899 94.4793 82 93.75 82H86.25ZM54.75 54.5H95.25C96.4647 54.5 97.6678 54.7392 98.79 55.2041C99.9122 55.669 100.932 56.3501 101.791 57.209C102.65 58.0679 103.331 59.0878 103.796 60.21C104.261 61.3322 104.5 62.5353 104.5 63.75V67H45.5V63.75C45.5 61.2967 46.4743 58.9437 48.209 57.209C49.9437 55.4743 52.2967 54.5 54.75 54.5Z" stroke="#0066FF"/>
</g>
<defs>
<filter id="filter0_d_2_2146" x="41" y="54" width="68" height="50" filterUnits="userSpaceOnUse" color-interpolation-filters="sRGB">
<feFlood flood-opacity="0" result="BackgroundImageFix"/>
<feColorMatrix in="SourceAlpha" type="matrix" values="0 0 0 0 0 0 0 0 0 0 0 0 0 0 0 0 0 0 127 0" result="hardAlpha"/>
<feOffset dy="4"/>
<feGaussianBlur stdDeviation="2"/>
<feComposite in2="hardAlpha" operator="out"/>
<feColorMatrix type="matrix" values="0 0 0 0 0 0 0 0 0 0 0 0 0 0 0 0 0 0 0.25 0"/>
<feBlend mode="normal" in2="BackgroundImageFix" result="effect1_dropShadow_2_2146"/>
<feBlend mode="normal" in="SourceGraphic" in2="effect1_dropShadow_2_2146" result="shape"/>
</filter>
</defs>
</svg>
